<mxfile>
    <diagram id="Os4OQ2AVHIz0DxEbQNlY" name="Page-1">
        <mxGraphModel dx="651" dy="600" grid="1" gridSize="10" guides="1" tooltips="1" connect="1" arrows="1" fold="1" page="1" pageScale="1" pageWidth="850" pageHeight="1100" background="#F1FAEE" math="0" shadow="0">
            <root>
                <mxCell id="0"/>
                <mxCell id="1" parent="0"/>
                <object label="&lt;span style=&quot;background-color: rgb(0 , 0 , 0)&quot;&gt;robot&lt;/span&gt;" type="robot" collision_tag="stopEvent" id="robot">
                    <mxCell style="ellipse;whiteSpace=wrap;html=1;aspect=fixed;fillColor=#e3c800;strokeColor=#B09500;fontColor=#ffffff;" parent="1" vertex="1">
                        <mxGeometry x="130" y="50" width="30" height="30" as="geometry"/>
                    </mxCell>
                </object>
                <mxCell id="3" value="" style="rounded=0;whiteSpace=wrap;html=1;fillColor=#A8DADC;strokeColor=#457B9D;" parent="1" vertex="1">
                    <mxGeometry x="120" y="40" width="360" height="10" as="geometry"/>
                </mxCell>
                <mxCell id="4" value="" style="rounded=0;whiteSpace=wrap;html=1;fillColor=#A8DADC;strokeColor=#457B9D;rotation=90;" parent="1" vertex="1">
                    <mxGeometry x="-30" y="190" width="310" height="10" as="geometry"/>
                </mxCell>
                <mxCell id="5" value="" style="rounded=0;whiteSpace=wrap;html=1;fillColor=#A8DADC;strokeColor=#457B9D;" parent="1" vertex="1">
                    <mxGeometry x="120" y="240" width="200" height="10" as="geometry"/>
                </mxCell>
                <mxCell id="6" value="" style="rounded=0;whiteSpace=wrap;html=1;fillColor=#A8DADC;strokeColor=#457B9D;" parent="1" vertex="1">
                    <mxGeometry x="120" y="350" width="640" height="10" as="geometry"/>
                </mxCell>
                <mxCell id="7" value="" style="rounded=0;whiteSpace=wrap;html=1;fillColor=#A8DADC;strokeColor=#457B9D;" parent="1" vertex="1">
                    <mxGeometry x="400" y="240" width="80" height="10" as="geometry"/>
                </mxCell>
                <mxCell id="8" value="" style="rounded=0;whiteSpace=wrap;html=1;fillColor=#A8DADC;strokeColor=#457B9D;rotation=-90;" parent="1" vertex="1">
                    <mxGeometry x="371.25" y="141.25" width="207.5" height="10" as="geometry"/>
                </mxCell>
                <mxCell id="9" value="" style="rounded=0;whiteSpace=wrap;html=1;fillColor=#A8DADC;strokeColor=#457B9D;rotation=-90;" parent="1" vertex="1">
                    <mxGeometry x="260" y="216" width="120" height="10" as="geometry"/>
                </mxCell>
                <mxCell id="10" value="" style="rounded=0;whiteSpace=wrap;html=1;fillColor=#A8DADC;strokeColor=#457B9D;rotation=0;" parent="1" vertex="1">
                    <mxGeometry x="590" y="240" width="170" height="10" as="geometry"/>
                </mxCell>
                <mxCell id="11" value="" style="rounded=0;whiteSpace=wrap;html=1;fillColor=#A8DADC;strokeColor=#457B9D;rotation=0;" parent="1" vertex="1">
                    <mxGeometry x="590" y="120" width="170" height="10" as="geometry"/>
                </mxCell>
                <mxCell id="12" value="" style="rounded=0;whiteSpace=wrap;html=1;fillColor=#A8DADC;strokeColor=#457B9D;rotation=0;" parent="1" vertex="1">
                    <mxGeometry x="470" y="40" width="290" height="10" as="geometry"/>
                </mxCell>
                <mxCell id="13" value="" style="rounded=0;whiteSpace=wrap;html=1;fillColor=#A8DADC;strokeColor=#457B9D;rotation=90;" parent="1" vertex="1">
                    <mxGeometry x="605" y="196.25" width="300" height="10" as="geometry"/>
                </mxCell>
                <mxCell id="14" value="" style="rounded=0;whiteSpace=wrap;html=1;strokeColor=#457B9D;fillColor=#A8DADC;" parent="1" vertex="1">
                    <mxGeometry x="194" y="200" width="120" height="39" as="geometry"/>
                </mxCell>
                <object label="&lt;font color=&quot;#000000&quot;&gt;medicine&lt;br&gt;&lt;/font&gt;" name="medicine1" type="pickable" weight="0.2" id="medicine1">
                    <mxCell style="rounded=0;whiteSpace=wrap;html=1;strokeColor=#B20000;fillColor=#e51400;fontColor=#ffffff;" parent="1" vertex="1">
                        <mxGeometry x="200" y="206.25" width="10" height="10" as="geometry"/>
                    </mxCell>
                </object>
                <object label="" type="map-path" id="22">
                    <mxCell style="endArrow=classic;html=1;fillColor=#647687;strokeColor=#314354;" parent="1" edge="1">
                        <mxGeometry width="50" height="50" relative="1" as="geometry">
                            <mxPoint x="170" y="70" as="sourcePoint"/>
                            <mxPoint x="680" y="320" as="targetPoint"/>
                            <Array as="points">
                                <mxPoint x="360" y="70"/>
                                <mxPoint x="360" y="320"/>
                            </Array>
                        </mxGeometry>
                    </mxCell>
                </object>
                <object label="" type="map-path" id="28">
                    <mxCell style="endArrow=classic;html=1;fillColor=#647687;strokeColor=#314354;" parent="1" edge="1">
                        <mxGeometry width="50" height="50" relative="1" as="geometry">
                            <mxPoint x="680" y="320" as="sourcePoint"/>
                            <mxPoint x="680" y="180" as="targetPoint"/>
                            <Array as="points">
                                <mxPoint x="520" y="320"/>
                                <mxPoint x="520" y="180"/>
                            </Array>
                        </mxGeometry>
                    </mxCell>
                </object>
                <object label="" type="map-path" id="29">
                    <mxCell style="endArrow=classic;html=1;fillColor=#647687;strokeColor=#314354;" parent="1" edge="1">
                        <mxGeometry width="50" height="50" relative="1" as="geometry">
                            <mxPoint x="680" y="180" as="sourcePoint"/>
                            <mxPoint x="680" y="80" as="targetPoint"/>
                            <Array as="points">
                                <mxPoint x="520" y="180"/>
                                <mxPoint x="520" y="80"/>
                            </Array>
                        </mxGeometry>
                    </mxCell>
                </object>
                <object label="" type="map-path" id="31">
                    <mxCell style="endArrow=classic;html=1;fillColor=#647687;strokeColor=#314354;" parent="1" edge="1">
                        <mxGeometry width="50" height="50" relative="1" as="geometry">
                            <mxPoint x="670" y="80" as="sourcePoint"/>
                            <mxPoint x="170" y="70" as="targetPoint"/>
                            <Array as="points">
                                <mxPoint x="520" y="80"/>
                                <mxPoint x="520" y="320"/>
                                <mxPoint x="360" y="320"/>
                                <mxPoint x="360" y="70"/>
                            </Array>
                        </mxGeometry>
                    </mxCell>
                </object>
                <object label="" type="POI" tag="robotHome" id="32">
                    <mxCell style="ellipse;whiteSpace=wrap;html=1;aspect=fixed;fillColor=#e3c800;strokeColor=#B09500;fontColor=#ffffff;" parent="1" vertex="1">
                        <mxGeometry x="164" y="65" width="10" height="10" as="geometry"/>
                    </mxCell>
                </object>
                <object label="" type="POI" tag="intersection1" id="37">
                    <mxCell style="ellipse;whiteSpace=wrap;html=1;aspect=fixed;fillColor=#e3c800;strokeColor=#B09500;fontColor=#ffffff;" parent="1" vertex="1">
                        <mxGeometry x="355" y="320" width="10" height="10" as="geometry"/>
                    </mxCell>
                </object>
                <object label="" type="POI" tag="intersection2" id="38">
                    <mxCell style="ellipse;whiteSpace=wrap;html=1;aspect=fixed;fillColor=#e3c800;strokeColor=#B09500;fontColor=#ffffff;" parent="1" vertex="1">
                        <mxGeometry x="516" y="320" width="10" height="10" as="geometry"/>
                    </mxCell>
                </object>
                <object label="" type="POI" tag="patientRoom2" id="39">
                    <mxCell style="ellipse;whiteSpace=wrap;html=1;aspect=fixed;fillColor=#e3c800;strokeColor=#B09500;fontColor=#ffffff;" parent="1" vertex="1">
                        <mxGeometry x="680" y="314" width="10" height="10" as="geometry"/>
                    </mxCell>
                </object>
                <object label="" type="POI" tag="patientRoom3" id="40">
                    <mxCell style="ellipse;whiteSpace=wrap;html=1;aspect=fixed;fillColor=#e3c800;strokeColor=#B09500;fontColor=#ffffff;" parent="1" vertex="1">
                        <mxGeometry x="680" y="175" width="10" height="10" as="geometry"/>
                    </mxCell>
                </object>
                <object label="" type="POI" tag="patientRoom4" id="41">
                    <mxCell style="ellipse;whiteSpace=wrap;html=1;aspect=fixed;fillColor=#e3c800;strokeColor=#B09500;fontColor=#ffffff;" parent="1" vertex="1">
                        <mxGeometry x="680" y="75" width="10" height="10" as="geometry"/>
                    </mxCell>
                </object>
                <mxCell id="person1" value="1" style="ellipse;whiteSpace=wrap;html=1;aspect=fixed;" parent="1" vertex="1">
                    <mxGeometry x="144" y="80" width="20" height="20" as="geometry"/>
                </mxCell>
                <mxCell id="person2" value="2" style="ellipse;whiteSpace=wrap;html=1;aspect=fixed;" parent="1" vertex="1">
                    <mxGeometry x="130" y="330" width="20" height="20" as="geometry"/>
                </mxCell>
                <mxCell id="person3" value="3" style="ellipse;whiteSpace=wrap;html=1;aspect=fixed;" parent="1" vertex="1">
                    <mxGeometry x="496" y="60" width="20" height="20" as="geometry"/>
                </mxCell>
                <object label="&lt;span style=&quot;background-color: rgb(0 , 0 , 0)&quot;&gt;robot2&lt;/span&gt;" type="robot" collision_tag="stopEvent" id="robot2">
                    <mxCell style="ellipse;whiteSpace=wrap;html=1;aspect=fixed;fillColor=#e3c800;strokeColor=#B09500;fontColor=#ffffff;" parent="1" vertex="1">
                        <mxGeometry x="437" y="55" width="30" height="30" as="geometry"/>
                    </mxCell>
                </object>
                <object label="" type="POI" tag="patientRoom1" id="43">
                    <mxCell style="ellipse;whiteSpace=wrap;html=1;aspect=fixed;fillColor=#e3c800;strokeColor=#B09500;fontColor=#ffffff;" parent="1" vertex="1">
                        <mxGeometry x="167" y="315" width="10" height="10" as="geometry"/>
                    </mxCell>
                </object>
                <object label="" type="map-path" id="44">
                    <mxCell style="endArrow=classic;html=1;strokeColor=#000000;" parent="1" edge="1">
                        <mxGeometry width="50" height="50" relative="1" as="geometry">
                            <mxPoint x="370" y="320" as="sourcePoint"/>
                            <mxPoint x="176" y="320" as="targetPoint"/>
                        </mxGeometry>
                    </mxCell>
                </object>
                <object label="&lt;span style=&quot;background-color: rgb(0 , 0 , 0)&quot;&gt;robot3&lt;br&gt;&lt;/span&gt;" type="robot" collision_tag="stopEvent" id="robot3">
                    <mxCell style="ellipse;whiteSpace=wrap;html=1;aspect=fixed;fillColor=#e3c800;strokeColor=#B09500;fontColor=#ffffff;" parent="1" vertex="1">
                        <mxGeometry x="720" y="250" width="30" height="30" as="geometry"/>
                    </mxCell>
                </object>
                <object label="" type="map-path" id="45">
                    <mxCell style="endArrow=classic;html=1;strokeColor=#000000;" parent="1" edge="1">
                        <mxGeometry width="50" height="50" relative="1" as="geometry">
                            <mxPoint x="710" y="280" as="sourcePoint"/>
                            <mxPoint x="520" y="240" as="targetPoint"/>
                            <Array as="points">
                                <mxPoint x="520" y="280"/>
                            </Array>
                        </mxGeometry>
                    </mxCell>
                </object>
                <mxCell id="person4" value="4" style="ellipse;whiteSpace=wrap;html=1;aspect=fixed;" parent="1" vertex="1">
                    <mxGeometry x="167" y="80" width="20" height="20" as="geometry"/>
                </mxCell>
            </root>
        </mxGraphModel>
    </diagram>
</mxfile>